<?xml version="1.0" standalone="no"?>
<!DOCTYPE svg PUBLIC "-//W3C//DTD SVG 20010904//EN"
 "http://www.w3.org/TR/2001/REC-SVG-20010904/DTD/svg10.dtd">
<svg version="1.0" xmlns="http://www.w3.org/2000/svg"
 width="440.000000pt" height="440.000000pt" viewBox="0 0 440.000000 440.000000"
 preserveAspectRatio="xMidYMid meet">
<metadata>
Created by potrace 1.11, written by Peter Selinger 2001-2013
</metadata>
<g transform="translate(0.000000,440.000000) scale(0.100000,-0.100000)"
fill="#000000" stroke="none">
<path d="M2127 4204 c-2 -2 -31 -7 -63 -9 -79 -6 -156 -15 -185 -20 -13 -3
-41 -7 -63 -11 -22 -3 -43 -7 -47 -9 -3 -2 -20 -7 -38 -10 -45 -8 -214 -62
-286 -92 -141 -59 -338 -167 -387 -213 -12 -11 -28 -20 -35 -20 -7 0 -13 -4
-13 -10 0 -5 -7 -10 -15 -10 -8 0 -15 -4 -15 -9 0 -5 -19 -23 -43 -40 -42 -32
-185 -168 -242 -232 -145 -162 -304 -429 -372 -626 -10 -29 -21 -53 -26 -53
-4 0 -5 -4 -2 -10 3 -5 0 -20 -6 -32 -7 -13 -13 -30 -14 -38 -1 -27 -28 -130
-34 -130 -3 0 -6 -15 -7 -33 0 -19 -4 -43 -8 -53 -19 -46 -37 -427 -21 -442 3
-3 0 -11 -6 -19 -6 -7 -8 -13 -3 -13 5 0 10 -23 12 -51 2 -39 0 -49 -10 -43
-8 5 -7 1 2 -11 8 -10 15 -32 16 -49 1 -17 4 -38 7 -46 4 -8 8 -31 9 -50 2
-19 8 -38 13 -42 6 -5 4 -12 -5 -18 -8 -5 -10 -10 -4 -10 10 0 36 -72 39 -105
1 -5 4 -17 7 -25 18 -44 29 -91 22 -101 -4 -7 -3 -9 3 -6 6 4 14 0 17 -9 9
-23 8 -26 -6 -19 -7 4 -5 0 6 -9 10 -8 15 -20 10 -27 -4 -8 -3 -10 4 -5 7 4
13 2 13 -3 2 -16 4 -23 17 -54 7 -16 9 -33 6 -39 -4 -7 -2 -8 4 -4 11 6 14 0
11 -20 0 -4 3 -10 8 -13 15 -10 84 -132 70 -125 -6 4 0 -5 15 -21 27 -27 40
-74 16 -59 -7 4 -8 3 -4 -5 6 -9 11 -9 21 -1 10 8 16 4 26 -20 8 -16 18 -30
23 -30 4 0 3 -6 -3 -14 -9 -11 -9 -16 0 -22 8 -4 9 -3 5 4 -15 24 12 11 28
-13 18 -27 13 -50 -7 -39 -7 4 -8 3 -4 -1 10 -12 38 -15 31 -4 -3 5 -2 9 1 9
9 0 54 -53 55 -64 0 -5 10 -17 21 -27 12 -10 19 -24 16 -32 -3 -8 3 -13 15
-14 19 -2 37 -18 66 -60 7 -10 10 -11 6 -3 -6 12 -5 13 7 2 12 -11 12 -14 -1
-23 -12 -8 -10 -9 8 -4 18 5 22 2 23 -17 0 -13 3 -17 6 -11 3 10 8 9 19 -2 9
-8 12 -20 8 -26 -4 -8 -3 -9 4 -5 12 7 61 -22 62 -37 0 -5 -4 -6 -8 -3 -5 3
-9 -1 -9 -9 0 -10 4 -12 12 -5 7 6 29 -3 66 -27 66 -45 80 -58 71 -68 -4 -5
-2 -5 5 -2 14 8 115 -52 107 -64 -2 -4 4 -6 15 -4 14 3 23 -4 30 -23 6 -19 10
-21 10 -9 1 10 6 15 12 12 6 -4 8 -13 6 -19 -3 -7 1 -13 9 -13 7 0 11 4 8 9
-3 4 7 3 21 -4 18 -8 25 -18 22 -29 -4 -13 0 -16 15 -14 14 3 18 0 14 -11 -3
-9 -2 -12 5 -9 6 4 8 14 5 22 -4 9 -1 13 6 11 7 -3 15 -15 19 -29 5 -16 7 -18
8 -6 1 9 3 17 5 17 4 0 57 -22 114 -46 20 -10 44 -17 52 -18 8 -1 14 -5 13
-11 -1 -5 12 -11 28 -12 50 -3 58 -6 64 -21 3 -9 0 -12 -9 -9 -10 4 -13 1 -10
-7 8 -20 33 -15 29 6 -2 11 2 18 11 18 8 0 14 -10 14 -24 0 -14 4 -27 9 -30 4
-3 6 5 4 19 -4 19 -1 23 13 21 13 -2 18 -11 17 -27 l-2 -24 11 23 c6 12 15 22
20 22 5 0 6 -5 3 -10 -4 -7 2 -9 19 -4 17 4 26 2 26 -6 0 -6 -4 -8 -10 -5 -5
3 -10 2 -10 -4 0 -5 9 -9 19 -8 11 0 17 5 15 9 -3 5 7 6 23 3 15 -3 52 -8 82
-11 38 -3 59 -11 73 -27 l19 -22 -11 23 c-10 21 -9 23 17 18 15 -2 30 -5 33
-6 3 -1 9 -2 13 -1 4 1 17 -4 29 -10 11 -6 18 -7 15 -2 -4 6 32 9 86 8 51 -1
102 2 115 7 17 6 22 4 22 -9 0 -14 2 -14 15 3 14 19 14 19 15 -1 1 -15 3 -17
8 -5 4 8 20 16 35 18 21 2 27 0 21 -9 -4 -7 -3 -9 4 -5 5 3 13 0 15 -6 4 -10
6 -9 6 1 1 11 4 11 19 0 15 -13 16 -12 3 3 -7 10 -17 15 -22 12 -5 -3 -9 0 -9
6 0 6 6 10 13 8 12 -2 105 10 142 19 11 2 27 6 35 7 8 1 25 6 37 10 43 14 64
15 58 3 -4 -7 0 -4 8 6 12 15 19 16 36 8 17 -9 20 -9 15 3 -4 10 5 16 28 21
18 4 57 18 87 32 30 13 59 22 65 20 5 -2 18 5 28 15 10 10 23 16 28 13 6 -4
10 -1 10 4 0 6 5 11 11 11 5 0 7 -6 4 -12 -4 -7 1 -4 10 7 13 15 19 17 22 7 4
-10 9 -7 17 8 6 13 13 21 16 19 3 -2 19 6 36 18 17 12 37 23 45 25 8 2 22 12
32 22 9 10 17 15 17 11 0 -5 12 2 27 16 14 13 24 19 20 14 -3 -6 -1 -17 4 -25
9 -13 10 -13 8 0 -3 29 1 40 16 40 8 0 15 5 15 11 0 5 5 7 10 4 6 -4 7 -11 4
-17 -4 -7 -2 -8 4 -4 6 4 9 13 6 20 -3 7 2 19 11 26 12 10 15 10 15 -1 0 -11
2 -11 9 1 6 8 7 19 3 25 -3 5 2 4 11 -4 15 -12 17 -12 11 4 -5 13 -4 16 4 11
7 -4 12 -2 12 3 0 6 7 11 15 11 8 0 14 6 12 13 -1 6 6 11 15 11 10 -1 15 2 12
7 -8 13 10 11 24 -3 8 -8 12 -9 12 -1 0 6 -6 13 -12 16 -17 6 29 57 50 57 9 0
13 3 10 6 -8 7 35 51 45 47 4 -2 7 1 7 7 0 7 7 9 16 6 14 -5 15 -4 4 9 -8 10
-9 15 -1 15 19 0 26 -5 23 -15 -2 -5 0 -6 4 -2 12 12 14 38 2 31 -6 -4 -8 -1
-6 7 3 8 11 13 17 11 7 -1 10 2 7 7 -4 5 5 18 19 29 13 11 21 22 18 26 -3 3
-2 6 3 6 5 0 18 14 28 31 10 18 24 28 31 25 10 -3 12 0 8 11 -4 10 -2 14 4 10
6 -4 14 0 17 9 4 10 2 13 -7 8 -7 -5 -6 0 3 11 8 11 20 26 25 33 6 7 18 22 28
33 9 10 14 19 10 19 -5 0 -1 6 8 13 9 7 16 14 16 17 0 22 17 51 28 46 9 -3 11
2 8 15 -3 11 0 19 6 19 7 0 10 4 6 10 -3 5 3 18 15 30 11 11 18 20 15 20 -3 0
-1 9 5 20 7 12 16 18 23 13 7 -4 7 0 -2 10 -9 11 -10 17 -2 17 6 0 11 9 11 20
0 12 7 20 18 21 9 0 12 3 5 5 -9 4 -6 15 7 40 11 19 19 37 19 39 -3 14 37 125
44 125 5 0 5 5 2 10 -3 6 -3 16 2 23 4 6 8 14 8 17 5 38 18 80 24 76 4 -3 5 8
3 25 -3 18 0 29 7 29 7 0 9 5 6 11 -4 5 1 19 11 30 14 16 15 20 4 17 -18 -4
-15 33 3 44 9 6 8 8 -1 8 -7 0 -10 4 -7 10 6 10 13 62 18 130 2 19 7 41 11 49
7 10 5 12 -4 6 -9 -6 -11 -4 -5 5 8 14 10 218 2 255 -3 11 1 26 7 34 8 11 8
13 -1 7 -9 -5 -13 2 -14 26 0 18 -2 42 -4 53 -1 11 -6 40 -9 65 -4 25 -8 56
-10 70 -2 14 -6 32 -9 40 -23 62 -33 120 -23 131 8 9 8 10 -1 5 -14 -7 -36 60
-26 78 3 6 2 8 -2 4 -5 -5 -16 13 -25 40 -29 80 -134 307 -150 322 -3 3 -21
30 -40 60 -45 73 -128 183 -183 245 -25 27 -43 53 -40 58 2 4 0 6 -4 5 -5 -2
-38 24 -72 57 -35 33 -73 69 -85 80 -11 11 -39 34 -61 50 -22 17 -42 32 -45
35 -42 43 -302 196 -373 219 -20 7 -37 16 -37 21 0 4 -10 10 -22 13 -13 3 -55
17 -95 31 -71 26 -244 74 -293 81 -14 2 -45 7 -70 10 -25 3 -51 8 -57 10 -7 2
-77 7 -155 10 -79 4 -148 8 -155 10 -6 2 -13 2 -16 -1z"/>
<path d="M4195 1901 c-3 -5 -2 -12 3 -15 5 -3 9 1 9 9 0 17 -3 19 -12 6z"/>
<path d="M256 1607 c3 -10 9 -15 12 -12 3 3 0 11 -7 18 -10 9 -11 8 -5 -6z"/>
<path d="M4096 1513 c-6 -14 -5 -15 5 -6 7 7 10 15 7 18 -3 3 -9 -2 -12 -12z"/>
<path d="M4010 1281 c0 -6 4 -13 10 -16 6 -3 7 1 4 9 -7 18 -14 21 -14 7z"/>
<path d="M3973 1245 c0 -8 4 -12 9 -9 5 3 6 10 3 15 -9 13 -12 11 -12 -6z"/>
<path d="M470 1156 c0 -2 8 -10 18 -17 15 -13 16 -12 3 4 -13 16 -21 21 -21
13z"/>
<path d="M634 916 c0 -12 6 -23 13 -23 9 0 10 4 3 12 -5 7 -7 14 -4 17 3 3 1
8 -3 11 -5 3 -9 -5 -9 -17z"/>
<path d="M3755 909 c-4 -6 -5 -12 -2 -15 2 -3 7 2 10 11 7 17 1 20 -8 4z"/>
<path d="M3719 888 c-6 -20 -6 -39 0 -42 4 -3 7 6 7 20 0 20 -4 32 -7 22z"/>
<path d="M3594 720 c0 -13 4 -16 10 -10 7 7 7 13 0 20 -6 6 -10 3 -10 -10z"/>
<path d="M3540 705 c0 -7 30 -13 34 -7 3 4 -4 9 -15 9 -10 1 -19 0 -19 -2z"/>
<path d="M870 666 c0 -2 7 -7 16 -10 8 -3 12 -2 9 4 -6 10 -25 14 -25 6z"/>
<path d="M3486 622 c-3 -5 1 -9 9 -9 8 0 12 4 9 9 -3 4 -7 8 -9 8 -2 0 -6 -4
-9 -8z"/>
<path d="M3455 609 c-4 -6 -5 -12 -2 -15 2 -3 7 2 10 11 7 17 1 20 -8 4z"/>
<path d="M1020 560 c0 -5 5 -10 11 -10 5 0 7 5 4 10 -3 6 -8 10 -11 10 -2 0
-4 -4 -4 -10z"/>
<path d="M1030 536 c0 -2 8 -10 18 -17 15 -13 16 -12 3 4 -13 16 -21 21 -21
13z"/>
<path d="M1075 511 c-3 -5 0 -13 6 -17 7 -4 9 -3 5 4 -3 5 0 13 6 15 9 4 10 6
1 6 -6 1 -14 -3 -18 -8z"/>
<path d="M1110 500 c0 -5 5 -10 11 -10 5 0 7 5 4 10 -3 6 -8 10 -11 10 -2 0
-4 -4 -4 -10z"/>
<path d="M3273 480 c1 -21 10 -18 13 5 1 8 -2 15 -6 15 -5 0 -8 -9 -7 -20z"/>
<path d="M1136 475 c-3 -8 0 -17 6 -21 6 -4 8 -3 4 4 -3 5 -1 12 6 14 8 3 9 6
1 11 -6 4 -13 0 -17 -8z"/>
<path d="M1174 442 c4 -3 14 -7 22 -8 9 -1 13 0 10 4 -4 3 -14 7 -22 8 -9 1
-13 0 -10 -4z"/>
<path d="M3175 441 c-3 -5 -2 -12 3 -15 5 -3 9 1 9 9 0 17 -3 19 -12 6z"/>
<path d="M3114 409 c-3 -6 -2 -15 3 -20 5 -5 9 -1 9 11 0 23 -2 24 -12 9z"/>
<path d="M3151 413 c-1 -17 16 -25 25 -12 4 7 3 9 -4 5 -5 -3 -13 0 -15 6 -4
9 -6 10 -6 1z"/>
<path d="M1273 385 c0 -8 4 -12 9 -9 4 3 8 9 8 15 0 5 -4 9 -8 9 -5 0 -9 -7
-9 -15z"/>
<path d="M3015 359 c-4 -6 -4 -13 -1 -16 3 -4 6 -1 6 6 0 7 5 9 12 5 7 -4 8
-3 4 4 -9 15 -13 15 -21 1z"/>
<path d="M3060 360 c-8 -5 -10 -10 -5 -10 6 0 17 5 25 10 8 5 11 10 5 10 -5 0
-17 -5 -25 -10z"/>
<path d="M1390 346 c0 -2 9 -6 20 -9 11 -3 18 -1 14 4 -5 9 -34 13 -34 5z"/>
<path d="M1438 328 c-7 -17 15 -19 29 -3 4 4 3 5 -4 2 -6 -4 -13 -2 -15 5 -3
8 -6 6 -10 -4z"/>
<path d="M2926 322 c-3 -5 1 -9 9 -9 8 0 12 4 9 9 -3 4 -7 8 -9 8 -2 0 -6 -4
-9 -8z"/>
<path d="M1510 300 c0 -5 5 -10 11 -10 5 0 7 5 4 10 -3 6 -8 10 -11 10 -2 0
-4 -4 -4 -10z"/>
<path d="M1537 281 c-4 -17 -3 -21 5 -13 5 5 8 16 6 23 -3 8 -7 3 -11 -10z"/>
<path d="M2915 290 c-4 -6 -11 -7 -17 -4 -7 4 -8 2 -4 -5 6 -9 11 -9 22 0 14
11 18 19 10 19 -3 0 -8 -5 -11 -10z"/>
<path d="M2827 273 c3 -7 8 -13 12 -13 4 0 8 6 8 13 0 8 -6 14 -13 14 -7 0
-10 -6 -7 -14z"/>
<path d="M1594 265 c1 -8 6 -18 11 -22 4 -4 5 -3 2 4 -4 6 -2 13 5 15 8 3 6 6
-4 10 -10 4 -15 2 -14 -7z"/>
<path d="M2702 251 c-11 -6 -10 -10 4 -15 9 -3 19 -4 22 -1 3 3 0 5 -7 5 -7 0
-9 5 -6 10 7 12 4 12 -13 1z"/>
<path d="M2749 243 c-13 -17 -13 -17 6 -3 11 8 22 16 24 17 2 2 0 3 -6 3 -6 0
-17 -8 -24 -17z"/>
<path d="M2637 229 c7 -7 15 -10 18 -7 3 3 -2 9 -12 12 -14 6 -15 5 -6 -5z"/>
<path d="M2610 220 c0 -5 5 -10 11 -10 5 0 7 5 4 10 -3 6 -8 10 -11 10 -2 0
-4 -4 -4 -10z"/>
<path d="M2550 209 c0 -5 -4 -8 -9 -5 -11 7 -8 -21 4 -31 4 -4 5 -2 1 5 -4 7
-1 15 8 18 18 7 22 24 6 24 -5 0 -10 -5 -10 -11z"/>
<path d="M1850 202 c0 -5 7 -9 15 -9 8 0 12 4 9 9 -3 4 -9 8 -15 8 -5 0 -9 -4
-9 -8z"/>
<path d="M1908 196 c4 -6 7 -14 7 -18 0 -19 11 -14 11 6 0 12 -6 23 -13 23 -6
0 -9 -5 -5 -11z"/>
<path d="M2495 200 c3 -5 8 -10 11 -10 2 0 4 5 4 10 0 6 -5 10 -11 10 -5 0 -7
-4 -4 -10z"/>
<path d="M1941 196 c2 -2 15 -9 29 -15 24 -11 24 -11 6 3 -16 13 -49 24 -35
12z"/>
<path d="M2037 187 c-3 -8 1 -14 8 -14 7 0 11 6 8 14 -6 16 -10 16 -16 0z"/>
<path d="M2306 182 c-3 -5 1 -9 9 -9 8 0 15 4 15 9 0 4 -4 8 -9 8 -6 0 -12 -4
-15 -8z"/>
<path d="M2390 180 c0 -5 5 -10 11 -10 5 0 7 5 4 10 -3 6 -8 10 -11 10 -2 0
-4 -4 -4 -10z"/>
<path d="M2249 163 c-13 -16 -12 -17 4 -4 16 13 21 21 13 21 -2 0 -10 -8 -17
-17z"/>
</g>
</svg>
